<svg xmlns="http://www.w3.org/2000/svg" width="53" height="54" viewBox="0 0 53 54">
    <path fill="#757575" fill-rule="evenodd" d="M46.787 22.799c1.48-1.48 2.959-2.665 4.438-3.85.592-.591 1.183-.888 1.48-1.776v-.296c-.297-.296-.297-.592-.297-.888l-7.987-8.883c-.296-.296-.592-.296-.888 0-1.183 1.185-2.662 2.369-3.846 3.553-.591.592-.887.592-1.183 0-1.183-.888-2.662-1.776-4.142-2.368-.591-.297-.887-.593-.887-1.48V.887c0-.296 0-.888-.296-.888H19.867c-.296 0-.296.592-.296.888V6.81c0 .888 0 .888-.888 1.48-1.479.593-2.958 1.48-4.141 2.37-.592.591-.888.591-1.48 0l-.295-.297c-1.184-.888-2.071-1.776-3.255-2.665-.887-.888-.887-.888-1.775.296l-5.325 6.218c-.591.889-1.479 1.777-2.07 2.369-.296.592-.592.888 0 1.48 1.775 1.777 3.845 3.257 5.62 5.034.296.296.592.888.592 1.184a19.867 19.867 0 0 0 0 5.922c0 .592 0 .888-.592 1.184-1.775 1.777-3.845 3.554-5.62 5.034-.296.296-.592.888 0 1.184.295.296.295.593.591.889 1.48 1.776 2.959 3.553 4.734 5.33.887 1.184 1.775 2.072 2.662 3.256.592.592.592.592 1.183 0 1.184-1.184 2.663-2.369 3.846-3.553.592-.592.888-.592 1.48 0 1.183.888 2.662 1.777 4.141 2.369.888.296.888.592.888 1.48v5.922c0 .296 0 .592.295.592h13.313c.296 0 .296-.296.296-.592v-5.922c0-.592.296-.888.591-1.184 1.775-.592 3.255-1.48 4.438-2.665.296-.296.592-.296.887 0 .592.592 1.184 1.184 2.071 1.777.592.592 1.48 1.184 2.071 1.776.296.296.592.296.888 0l.887-.888c1.775-2.073 3.55-3.85 5.325-5.922.888-.888 1.775-1.776 2.071-2.96v-.297c-.296-.296-.296-.592-.592-.888-1.775-1.777-3.846-3.257-5.62-5.034-.296-.296-.592-.592-.592-1.184.296-2.073.296-3.85 0-5.922.296-.296.296-.888.591-1.184zM26.102 38.196c-5.33 0-9.771-4.738-9.475-10.068 0-5.33 4.441-10.067 10.363-10.067 5.33.297 9.77 4.442 9.77 9.771-.295 6.218-4.737 10.364-10.658 10.364z"/>
</svg>
